<svg width="31" height="28" viewBox="0 0 31 28" fill="none" xmlns="http://www.w3.org/2000/svg">
<path d="M12.3333 18.8333H13.2667L19.0167 13.0833L18.0833 12.15L12.3333 17.9V18.8333ZM21.8667 12.1167L19.0333 9.31667L19.9667 8.38333C20.2222 8.12778 20.5362 8 20.9087 8C21.2807 8 21.5944 8.12778 21.85 8.38333L22.7833 9.31667C23.0389 9.57222 23.1722 9.88067 23.1833 10.242C23.1944 10.6029 23.0722 10.9111 22.8167 11.1667L21.8667 12.1167ZM20.9 13.1L13.8333 20.1667H11V17.3333L18.0667 10.2667L20.9 13.1ZM18.55 12.6167L18.0833 12.15L19.0167 13.0833L18.55 12.6167Z" fill="#5D9936"/>
</svg>
