<svg width="40" height="40" viewBox="0 0 40 40" fill="none" xmlns="http://www.w3.org/2000/svg">
<path d="M22.4997 24.1667H26.6663L25.4955 22.9958C25.3383 22.8386 25.2136 22.6519 25.1285 22.4464C25.0434 22.2409 24.9996 22.0207 24.9997 21.7983V19.1667C24.9998 18.1324 24.6793 17.1236 24.0824 16.2791C23.4854 15.4345 22.6413 14.7958 21.6663 14.4508V14.1667C21.6663 13.7246 21.4907 13.3007 21.1782 12.9882C20.8656 12.6756 20.4417 12.5 19.9997 12.5C19.5576 12.5 19.1337 12.6756 18.8212 12.9882C18.5086 13.3007 18.333 13.7246 18.333 14.1667V14.4508C16.3913 15.1375 14.9997 16.99 14.9997 19.1667V21.7992C14.9997 22.2475 14.8213 22.6783 14.5038 22.9958L13.333 24.1667H17.4997M22.4997 24.1667V25C22.4997 25.663 22.2363 26.2989 21.7674 26.7678C21.2986 27.2366 20.6627 27.5 19.9997 27.5C19.3366 27.5 18.7007 27.2366 18.2319 26.7678C17.7631 26.2989 17.4997 25.663 17.4997 25V24.1667M22.4997 24.1667H17.4997" stroke="#525252" stroke-width="2" stroke-linecap="round" stroke-linejoin="round"/>
<rect x="20" y="4" width="16" height="16" rx="8" fill="#FA3E3E"/>
<path d="M29.1044 8.72727V16H27.7869V10.0092H27.7443L26.0433 11.0959V9.88849L27.8509 8.72727H29.1044Z" fill="white"/>
</svg>
