<svg width="24" height="24" viewBox="0 0 24 24" fill="none" xmlns="http://www.w3.org/2000/svg">
<path d="M5.25 1.9375H14.25C14.3896 1.93751 14.5282 1.96508 14.6572 2.01855C14.7861 2.07203 14.9034 2.15031 15.002 2.24902L20.252 7.49902C20.4509 7.69823 20.5625 7.96845 20.5625 8.25V20.25C20.5625 20.7307 20.3712 21.1913 20.0312 21.5312C19.6913 21.8712 19.2307 22.0625 18.75 22.0625H5.25C4.7693 22.0625 4.30866 21.8712 3.96875 21.5312C3.62884 21.1913 3.4375 20.7307 3.4375 20.25V3.75C3.4375 3.2693 3.62884 2.80866 3.96875 2.46875C4.30866 2.12884 4.7693 1.9375 5.25 1.9375ZM5.5625 19.9375H18.4375V9.6875H13.875C13.5932 9.6875 13.3233 9.57523 13.124 9.37598C12.9248 9.17672 12.8125 8.90679 12.8125 8.625V4.0625H5.5625V19.9375ZM14.9375 7.5625H17.3076L17.2002 7.45605L15.0439 5.2998L14.9375 5.19238V7.5625Z" fill="#737373" stroke="#737373" stroke-width="0.125"/>
</svg>
